<?xml version="1.0" encoding="utf-8"?>
<!-- Generator: Adobe Illustrator 18.1.1, SVG Export Plug-In . SVG Version: 6.00 Build 0)  -->
<svg version="1.1" id="Layer_1" xmlns="http://www.w3.org/2000/svg" xmlns:xlink="http://www.w3.org/1999/xlink" x="0px" y="0px"
	 viewBox="0 0 405 76.5" enable-background="new 0 0 405 76.5" xml:space="preserve">
<g>
	<path fill="#FFFFFF" stroke="#000000" stroke-miterlimit="10" d="M308.8,29.6"/>
	<path fill="none" stroke="#000000" stroke-miterlimit="10" d="M270.6,23.3"/>
	<polygon fill="#FF9100" points="202.5,76.5 225,4.5 180,4.5 	"/>
	<path fill="#FF0000" stroke="#000000" stroke-miterlimit="10" d="M340.6,23.3"/>
	<polygon fill="#9D125C" points="22.5,76.5 45,4.5 0,4.5 	"/>
	<polygon fill="#005FB4" points="247.5,76.5 270,4.5 225,4.5 	"/>
	<polygon fill="#00F917" points="157.5,76.5 180,4.5 135,4.5 	"/>
	<polygon fill="#EB0B6F" points="112.5,76.5 135,4.5 90,4.5 	"/>
	<polygon fill="#FFEC00" points="67.5,76.5 90,4.5 45,4.5 	"/>
	<polygon fill="#EC060E" points="292.5,76.5 315,4.5 270,4.5 	"/>
	<polygon fill="#089600" points="337.5,76.5 360,4.5 315,4.5 	"/>
	<polygon fill="#FF3C00" points="382.5,76.5 405,4.5 360,4.5 	"/>
	<rect x="-7" y="-6.3" fill="#FFB000" width="417" height="10.7"/>
</g>
</svg>
